Coordinates
version=1
nRows=12
nColumns=24
inDegrees=yes

Units are S.I. units (second, meters, Newtons, ...)
Angles are in degrees.

endheader
time	pelvis_tilt	pelvis_list	pelvis_rotation	pelvis_tx	pelvis_ty	pelvis_tz	hip_flexion_r	hip_adduction_r	hip_rotation_r	knee_angle_r	ankle_angle_r	subtalar_angle_r	mtp_angle_r	hip_flexion_l	hip_adduction_l	hip_rotation_l	knee_angle_l	ankle_angle_l	subtalar_angle_l	mtp_angle_l	lumbar_extension	lumbar_bending	lumbar_rotation
      4.08500000	    -10.44449834	     -2.12737405	     -5.36003622	     -1.24656922	     -0.00251646	     -0.65921808	      5.61514831	      5.94771427	     -5.73530541	     -6.26939942	      4.03446359	     -4.45415333	      8.63578254	     34.50114000	     -7.25751985	    -15.65884846	    -51.63055076	     -2.44886826	    -14.22077387	      4.09139643	      6.60593820	      5.95519614	      1.06269853
      4.09000000	    -10.40077071	     -2.05270310	     -5.45113995	     -1.24131532	     -0.00280134	     -0.65872092	      5.12690802	      5.86104156	     -5.96099498	     -6.06876308	      4.23387364	     -4.01487197	      9.32462750	     34.66221031	     -7.15676723	    -16.06589546	    -50.15662290	     -1.85441861	    -13.96651167	      2.73150378	      6.48029078	      5.83499971	      1.29650495
      4.09500000	    -10.60509623	     -2.02028534	     -5.55499081	     -1.23611041	     -0.00343550	     -0.65813590	      4.91993735	      5.86976711	     -5.93313660	     -5.91804859	      4.41282766	     -3.94287527	      9.39758201	     35.08393912	     -7.13290384	    -16.41045930	    -48.60790403	     -1.57942369	    -13.80168488	      2.63559380	      6.61849273	      5.76990008	      1.48199642
      4.10000000	    -10.61897137	     -1.96763604	     -5.67089665	     -1.23084248	     -0.00387967	     -0.65763115	      4.50799578	      5.81754723	     -6.05799078	     -5.76050539	      4.63166073	     -3.59616613	      9.83103466	     35.24118820	     -7.07506803	    -16.86212911	    -46.99164243	     -1.10758216	    -13.49751686	      1.72576157	      6.55225251	      5.68024989	      1.74864105
      4.10500000	    -10.81739351	     -1.95402096	     -5.79939893	     -1.22560186	     -0.00459277	     -0.65707163	      4.30684173	      5.84098082	     -6.03143020	     -5.64143359	      4.84162963	     -3.46793042	      9.92708463	     35.58510508	     -7.08039104	    -17.28143743	    -45.31359865	     -0.85542438	    -13.24881881	      1.56873929	      6.68221473	      5.64015502	      1.99542222
      4.11000000	    -10.91931003	     -1.92772390	     -5.92232746	     -1.22032673	     -0.00518930	     -0.65656088	      4.00652191	      5.83024935	     -6.07576669	     -5.53062966	      5.04162204	     -3.23196530	     10.06926001	     35.77249881	     -7.05972074	    -17.76098489	    -43.54903292	     -0.59327356	    -12.88615279	      1.27426261	      6.70820439	      5.58535247	      2.22926130
      4.11500000	    -11.09674932	     -1.92400714	     -5.94687419	     -1.21499339	     -0.00595276	     -0.65616564	      3.77165088	      5.84796420	     -6.12771485	     -5.40528881	      5.24732555	     -3.15536809	     10.13624268	     36.03529794	     -6.98165211	    -18.09860763	    -41.72885301	     -0.40830223	    -12.51412224	      1.14750945	      6.83423943	      5.53590956	      2.31297789
      4.12000000	    -11.11252032	     -1.90455783	     -6.07349611	     -1.20963072	     -0.00652744	     -0.65569167	      3.38499814	      5.82586196	     -6.27196669	     -5.31669777	      5.48957843	     -2.79140918	     10.39002827	     36.04279250	     -6.95516888	    -18.68441097	    -39.84047949	     -0.09899494	    -11.96563342	      0.73676739	      6.77606197	      5.47629202	      2.58658261
      4.12500000	    -11.27879174	     -1.90886987	     -6.15892661	     -1.20424995	     -0.00730939	     -0.65532557	      3.14837892	      5.83799811	     -6.28610623	     -5.21828779	      5.69858544	     -2.57906951	     10.53146097	     36.20115922	     -6.90308203	    -19.13059683	    -37.90620785	      0.10094789	    -11.37658765	      0.61284678	      6.88701563	      5.45566744	      2.77464824
      4.13000000	    -11.39327778	     -1.91779515	     -6.22097847	     -1.19883245	     -0.00805526	     -0.65499097	      2.85880140	      5.84482370	     -6.35967838	     -5.13134238	      5.90408595	     -2.34003037	     10.67447218	     36.26665938	     -6.83724489	    -19.62402593	    -35.91981119	      0.29619812	    -10.66770108	      0.58165796	      6.94633574	      5.42905849	      2.93837693
      4.13500000	    -11.49538073	     -1.93107129	     -6.27648663	     -1.19338775	     -0.00880220	     -0.65468467	      2.55936427	      5.85004360	     -6.45785230	     -5.05414582	      6.10297906	     -2.07918541	     10.82628219	     36.28805526	     -6.76256415	    -20.14042005	    -33.89705413	      0.46656365	     -9.85250393	      0.66964459	      6.99238814	      5.40233220	      3.08380220
      4.14000000	    -11.58127789	     -1.94591544	     -6.31301768	     -1.18791221	     -0.00955726	     -0.65442814	      2.25001389	      5.84893255	     -6.58966520	     -4.99582494	      6.30252746	     -1.80982715	     10.99734417	     36.26753374	     -6.66644908	    -20.66643466	    -31.84902542	      0.61948168	     -8.93860868	      0.92118887	      7.02427183	      5.37436762	      3.22916160
